<mxfile host="Electron" agent="Mozilla/5.0 (Windows NT 10.0; Win64; x64) AppleWebKit/537.36 (KHTML, like Gecko) draw.io/27.0.2 Chrome/134.0.6998.205 Electron/35.3.0 Safari/537.36" version="27.0.2">
  <diagram name="Page-1" id="8T4DduPxEkSUczB1RB__">
    <mxGraphModel dx="1150" dy="988" grid="1" gridSize="10" guides="1" tooltips="1" connect="1" arrows="1" fold="1" page="1" pageScale="1" pageWidth="850" pageHeight="1100" math="0" shadow="0">
      <root>
        <mxCell id="0" />
        <mxCell id="1" parent="0" />
        <mxCell id="VtMSIpUSbgN7GNLW5Yxd-1" value="" style="rounded=1;whiteSpace=wrap;html=1;rotation=90;" vertex="1" parent="1">
          <mxGeometry x="105" y="470" width="170" height="70" as="geometry" />
        </mxCell>
        <mxCell id="VtMSIpUSbgN7GNLW5Yxd-2" value="&lt;font style=&quot;font-size: 7px;&quot;&gt;D2&lt;/font&gt;" style="text;strokeColor=none;align=center;fillColor=none;html=1;verticalAlign=middle;whiteSpace=wrap;rounded=0;" vertex="1" parent="1">
          <mxGeometry x="160" y="530" width="10" height="10" as="geometry" />
        </mxCell>
        <mxCell id="VtMSIpUSbgN7GNLW5Yxd-4" value="&lt;font style=&quot;font-size: 7px;&quot;&gt;D3&lt;/font&gt;" style="text;strokeColor=none;align=center;fillColor=none;html=1;verticalAlign=middle;whiteSpace=wrap;rounded=0;" vertex="1" parent="1">
          <mxGeometry x="160" y="520" width="10" height="10" as="geometry" />
        </mxCell>
        <mxCell id="VtMSIpUSbgN7GNLW5Yxd-5" value="&lt;font style=&quot;font-size: 7px;&quot;&gt;D4&lt;/font&gt;" style="text;strokeColor=none;align=center;fillColor=none;html=1;verticalAlign=middle;whiteSpace=wrap;rounded=0;" vertex="1" parent="1">
          <mxGeometry x="160" y="510" width="10" height="10" as="geometry" />
        </mxCell>
        <mxCell id="VtMSIpUSbgN7GNLW5Yxd-6" value="&lt;font style=&quot;font-size: 7px;&quot;&gt;D5&lt;/font&gt;" style="text;strokeColor=none;align=center;fillColor=none;html=1;verticalAlign=middle;whiteSpace=wrap;rounded=0;" vertex="1" parent="1">
          <mxGeometry x="160" y="500" width="10" height="10" as="geometry" />
        </mxCell>
        <mxCell id="VtMSIpUSbgN7GNLW5Yxd-7" value="&lt;font style=&quot;font-size: 7px;&quot;&gt;D6&lt;/font&gt;" style="text;strokeColor=none;align=center;fillColor=none;html=1;verticalAlign=middle;whiteSpace=wrap;rounded=0;" vertex="1" parent="1">
          <mxGeometry x="160" y="490" width="10" height="10" as="geometry" />
        </mxCell>
        <mxCell id="VtMSIpUSbgN7GNLW5Yxd-8" value="&lt;font style=&quot;font-size: 7px;&quot;&gt;D7&lt;/font&gt;" style="text;strokeColor=none;align=center;fillColor=none;html=1;verticalAlign=middle;whiteSpace=wrap;rounded=0;" vertex="1" parent="1">
          <mxGeometry x="160" y="480" width="10" height="10" as="geometry" />
        </mxCell>
        <mxCell id="VtMSIpUSbgN7GNLW5Yxd-9" value="&lt;font style=&quot;font-size: 7px;&quot;&gt;D8&lt;/font&gt;" style="text;strokeColor=none;align=center;fillColor=none;html=1;verticalAlign=middle;whiteSpace=wrap;rounded=0;" vertex="1" parent="1">
          <mxGeometry x="160" y="470" width="10" height="10" as="geometry" />
        </mxCell>
        <mxCell id="VtMSIpUSbgN7GNLW5Yxd-10" value="&lt;font style=&quot;font-size: 7px;&quot;&gt;D9&lt;/font&gt;" style="text;strokeColor=none;align=center;fillColor=none;html=1;verticalAlign=middle;whiteSpace=wrap;rounded=0;" vertex="1" parent="1">
          <mxGeometry x="160" y="460" width="10" height="10" as="geometry" />
        </mxCell>
        <mxCell id="VtMSIpUSbgN7GNLW5Yxd-11" value="&lt;font style=&quot;font-size: 7px;&quot;&gt;D10&lt;/font&gt;" style="text;strokeColor=none;align=center;fillColor=none;html=1;verticalAlign=middle;whiteSpace=wrap;rounded=0;" vertex="1" parent="1">
          <mxGeometry x="160" y="450" width="10" height="10" as="geometry" />
        </mxCell>
        <mxCell id="VtMSIpUSbgN7GNLW5Yxd-12" value="&lt;font style=&quot;font-size: 7px;&quot;&gt;D11&lt;/font&gt;" style="text;strokeColor=none;align=center;fillColor=none;html=1;verticalAlign=middle;whiteSpace=wrap;rounded=0;" vertex="1" parent="1">
          <mxGeometry x="160" y="440" width="10" height="10" as="geometry" />
        </mxCell>
        <mxCell id="VtMSIpUSbgN7GNLW5Yxd-13" value="&lt;font style=&quot;font-size: 7px;&quot;&gt;D12&lt;/font&gt;" style="text;strokeColor=none;align=center;fillColor=none;html=1;verticalAlign=middle;whiteSpace=wrap;rounded=0;" vertex="1" parent="1">
          <mxGeometry x="210" y="430" width="10" height="10" as="geometry" />
        </mxCell>
        <mxCell id="VtMSIpUSbgN7GNLW5Yxd-14" value="&lt;font style=&quot;font-size: 7px;&quot;&gt;GND&lt;/font&gt;" style="text;strokeColor=none;align=center;fillColor=none;html=1;verticalAlign=middle;whiteSpace=wrap;rounded=0;" vertex="1" parent="1">
          <mxGeometry x="160" y="540" width="10" height="10" as="geometry" />
        </mxCell>
        <mxCell id="VtMSIpUSbgN7GNLW5Yxd-15" value="&lt;span style=&quot;font-size: 7px;&quot;&gt;5V&lt;/span&gt;" style="text;strokeColor=none;align=center;fillColor=none;html=1;verticalAlign=middle;whiteSpace=wrap;rounded=0;" vertex="1" parent="1">
          <mxGeometry x="210" y="500" width="10" height="10" as="geometry" />
        </mxCell>
        <mxCell id="VtMSIpUSbgN7GNLW5Yxd-17" value="" style="rounded=0;whiteSpace=wrap;html=1;" vertex="1" parent="1">
          <mxGeometry x="620" y="560" width="120" height="60" as="geometry" />
        </mxCell>
        <mxCell id="VtMSIpUSbgN7GNLW5Yxd-18" value="Arduino Nano" style="text;strokeColor=none;align=center;fillColor=none;html=1;verticalAlign=middle;whiteSpace=wrap;rounded=0;" vertex="1" parent="1">
          <mxGeometry x="160" y="600" width="60" height="30" as="geometry" />
        </mxCell>
        <mxCell id="VtMSIpUSbgN7GNLW5Yxd-19" value="&lt;font style=&quot;font-size: 4px;&quot;&gt;Vss&lt;/font&gt;" style="text;strokeColor=none;align=center;fillColor=none;html=1;verticalAlign=middle;whiteSpace=wrap;rounded=0;" vertex="1" parent="1">
          <mxGeometry x="620" y="560" width="10" height="10" as="geometry" />
        </mxCell>
        <mxCell id="VtMSIpUSbgN7GNLW5Yxd-23" value="&lt;font style=&quot;font-size: 4px;&quot;&gt;Vdd&lt;/font&gt;" style="text;strokeColor=none;align=center;fillColor=none;html=1;verticalAlign=middle;whiteSpace=wrap;rounded=0;" vertex="1" parent="1">
          <mxGeometry x="630" y="560" width="10" height="10" as="geometry" />
        </mxCell>
        <mxCell id="VtMSIpUSbgN7GNLW5Yxd-24" value="&lt;font style=&quot;font-size: 4px;&quot;&gt;VO&lt;/font&gt;" style="text;strokeColor=none;align=center;fillColor=none;html=1;verticalAlign=middle;whiteSpace=wrap;rounded=0;" vertex="1" parent="1">
          <mxGeometry x="640" y="560" width="10" height="10" as="geometry" />
        </mxCell>
        <mxCell id="VtMSIpUSbgN7GNLW5Yxd-25" value="&lt;font style=&quot;font-size: 4px;&quot;&gt;RS&lt;/font&gt;" style="text;strokeColor=none;align=center;fillColor=none;html=1;verticalAlign=middle;whiteSpace=wrap;rounded=0;" vertex="1" parent="1">
          <mxGeometry x="650" y="560" width="10" height="10" as="geometry" />
        </mxCell>
        <mxCell id="VtMSIpUSbgN7GNLW5Yxd-26" value="&lt;font style=&quot;font-size: 4px;&quot;&gt;RW&lt;/font&gt;" style="text;strokeColor=none;align=center;fillColor=none;html=1;verticalAlign=middle;whiteSpace=wrap;rounded=0;" vertex="1" parent="1">
          <mxGeometry x="660" y="560" width="10" height="10" as="geometry" />
        </mxCell>
        <mxCell id="VtMSIpUSbgN7GNLW5Yxd-27" value="&lt;span style=&quot;font-size: 4px;&quot;&gt;E&lt;/span&gt;" style="text;strokeColor=none;align=center;fillColor=none;html=1;verticalAlign=middle;whiteSpace=wrap;rounded=0;" vertex="1" parent="1">
          <mxGeometry x="670" y="560" width="10" height="10" as="geometry" />
        </mxCell>
        <mxCell id="VtMSIpUSbgN7GNLW5Yxd-28" value="&lt;span style=&quot;font-size: 4px;&quot;&gt;D4&lt;/span&gt;" style="text;strokeColor=none;align=center;fillColor=none;html=1;verticalAlign=middle;whiteSpace=wrap;rounded=0;" vertex="1" parent="1">
          <mxGeometry x="680" y="560" width="10" height="10" as="geometry" />
        </mxCell>
        <mxCell id="VtMSIpUSbgN7GNLW5Yxd-29" value="&lt;span style=&quot;font-size: 4px;&quot;&gt;D5&lt;/span&gt;" style="text;strokeColor=none;align=center;fillColor=none;html=1;verticalAlign=middle;whiteSpace=wrap;rounded=0;" vertex="1" parent="1">
          <mxGeometry x="690" y="560" width="10" height="10" as="geometry" />
        </mxCell>
        <mxCell id="VtMSIpUSbgN7GNLW5Yxd-30" value="&lt;span style=&quot;font-size: 4px;&quot;&gt;D6&lt;/span&gt;" style="text;strokeColor=none;align=center;fillColor=none;html=1;verticalAlign=middle;whiteSpace=wrap;rounded=0;" vertex="1" parent="1">
          <mxGeometry x="700" y="560" width="10" height="10" as="geometry" />
        </mxCell>
        <mxCell id="VtMSIpUSbgN7GNLW5Yxd-31" value="&lt;span style=&quot;font-size: 4px;&quot;&gt;D7&lt;/span&gt;" style="text;strokeColor=none;align=center;fillColor=none;html=1;verticalAlign=middle;whiteSpace=wrap;rounded=0;" vertex="1" parent="1">
          <mxGeometry x="710" y="560" width="10" height="10" as="geometry" />
        </mxCell>
        <mxCell id="VtMSIpUSbgN7GNLW5Yxd-32" value="&lt;span style=&quot;font-size: 4px;&quot;&gt;A&lt;/span&gt;" style="text;strokeColor=none;align=center;fillColor=none;html=1;verticalAlign=middle;whiteSpace=wrap;rounded=0;" vertex="1" parent="1">
          <mxGeometry x="720" y="560" width="10" height="10" as="geometry" />
        </mxCell>
        <mxCell id="VtMSIpUSbgN7GNLW5Yxd-33" value="&lt;span style=&quot;font-size: 4px;&quot;&gt;K&lt;/span&gt;" style="text;strokeColor=none;align=center;fillColor=none;html=1;verticalAlign=middle;whiteSpace=wrap;rounded=0;" vertex="1" parent="1">
          <mxGeometry x="730" y="560" width="10" height="10" as="geometry" />
        </mxCell>
        <mxCell id="VtMSIpUSbgN7GNLW5Yxd-34" value="LCD display" style="text;strokeColor=none;align=center;fillColor=none;html=1;verticalAlign=middle;whiteSpace=wrap;rounded=0;" vertex="1" parent="1">
          <mxGeometry x="645" y="630" width="60" height="30" as="geometry" />
        </mxCell>
        <mxCell id="VtMSIpUSbgN7GNLW5Yxd-35" value="" style="ellipse;whiteSpace=wrap;html=1;aspect=fixed;" vertex="1" parent="1">
          <mxGeometry x="335" y="920" width="40" height="40" as="geometry" />
        </mxCell>
        <mxCell id="VtMSIpUSbgN7GNLW5Yxd-36" value="Buzzer&lt;br&gt;(Active)" style="text;strokeColor=none;align=center;fillColor=none;html=1;verticalAlign=middle;whiteSpace=wrap;rounded=0;" vertex="1" parent="1">
          <mxGeometry x="330" y="970" width="50" height="20" as="geometry" />
        </mxCell>
        <mxCell id="VtMSIpUSbgN7GNLW5Yxd-37" value="-" style="text;strokeColor=none;align=center;fillColor=none;html=1;verticalAlign=middle;whiteSpace=wrap;rounded=0;" vertex="1" parent="1">
          <mxGeometry x="363" y="935" width="12" height="10" as="geometry" />
        </mxCell>
        <mxCell id="VtMSIpUSbgN7GNLW5Yxd-38" value="+" style="text;strokeColor=none;align=center;fillColor=none;html=1;verticalAlign=middle;whiteSpace=wrap;rounded=0;" vertex="1" parent="1">
          <mxGeometry x="335" y="932.5" width="15" height="15" as="geometry" />
        </mxCell>
        <mxCell id="VtMSIpUSbgN7GNLW5Yxd-39" value="" style="whiteSpace=wrap;html=1;aspect=fixed;" vertex="1" parent="1">
          <mxGeometry x="545" y="820" width="30" height="30" as="geometry" />
        </mxCell>
        <mxCell id="VtMSIpUSbgN7GNLW5Yxd-40" value="" style="ellipse;whiteSpace=wrap;html=1;aspect=fixed;" vertex="1" parent="1">
          <mxGeometry x="550" y="825" width="20" height="20" as="geometry" />
        </mxCell>
        <mxCell id="VtMSIpUSbgN7GNLW5Yxd-42" value="Potentiometer" style="text;strokeColor=none;align=center;fillColor=none;html=1;verticalAlign=middle;whiteSpace=wrap;rounded=0;" vertex="1" parent="1">
          <mxGeometry x="530" y="852.5" width="60" height="17.5" as="geometry" />
        </mxCell>
        <mxCell id="VtMSIpUSbgN7GNLW5Yxd-45" value="&lt;font style=&quot;font-size: 8px;&quot;&gt;LED&lt;br&gt;diode&lt;/font&gt;" style="text;strokeColor=none;align=center;fillColor=none;html=1;verticalAlign=middle;whiteSpace=wrap;rounded=0;" vertex="1" parent="1">
          <mxGeometry x="197.5" y="860" width="35" height="20" as="geometry" />
        </mxCell>
        <mxCell id="VtMSIpUSbgN7GNLW5Yxd-53" value="" style="endArrow=oval;html=1;rounded=0;entryX=0.75;entryY=1;entryDx=0;entryDy=0;exitX=0.038;exitY=-0.003;exitDx=0;exitDy=0;exitPerimeter=0;startArrow=oval;startFill=1;endFill=1;" edge="1" parent="1" source="VtMSIpUSbgN7GNLW5Yxd-17" target="VtMSIpUSbgN7GNLW5Yxd-1">
          <mxGeometry width="50" height="50" relative="1" as="geometry">
            <mxPoint x="620" y="520" as="sourcePoint" />
            <mxPoint x="140" y="540" as="targetPoint" />
            <Array as="points">
              <mxPoint x="625" y="520" />
              <mxPoint x="420" y="520" />
              <mxPoint x="420" y="720" />
              <mxPoint x="50" y="720" />
              <mxPoint x="50" y="548" />
            </Array>
          </mxGeometry>
        </mxCell>
        <mxCell id="VtMSIpUSbgN7GNLW5Yxd-56" value="" style="rounded=1;whiteSpace=wrap;html=1;" vertex="1" parent="1">
          <mxGeometry x="410" y="56.25" width="120" height="60" as="geometry" />
        </mxCell>
        <mxCell id="VtMSIpUSbgN7GNLW5Yxd-57" value="" style="ellipse;whiteSpace=wrap;html=1;aspect=fixed;" vertex="1" parent="1">
          <mxGeometry x="420" y="63" width="37" height="37" as="geometry" />
        </mxCell>
        <mxCell id="VtMSIpUSbgN7GNLW5Yxd-59" value="" style="ellipse;whiteSpace=wrap;html=1;aspect=fixed;" vertex="1" parent="1">
          <mxGeometry x="480" y="63" width="37" height="37" as="geometry" />
        </mxCell>
        <mxCell id="VtMSIpUSbgN7GNLW5Yxd-60" value="&lt;font style=&quot;font-size: 7px;&quot;&gt;VCC&lt;/font&gt;" style="text;strokeColor=none;align=center;fillColor=none;html=1;verticalAlign=middle;whiteSpace=wrap;rounded=0;" vertex="1" parent="1">
          <mxGeometry x="418" y="100" width="15" height="10" as="geometry" />
        </mxCell>
        <mxCell id="VtMSIpUSbgN7GNLW5Yxd-61" value="&lt;font style=&quot;font-size: 7px;&quot;&gt;GND&lt;/font&gt;" style="text;strokeColor=none;align=center;fillColor=none;html=1;verticalAlign=middle;whiteSpace=wrap;rounded=0;" vertex="1" parent="1">
          <mxGeometry x="442" y="100" width="15" height="10" as="geometry" />
        </mxCell>
        <mxCell id="VtMSIpUSbgN7GNLW5Yxd-62" value="&lt;font style=&quot;font-size: 7px;&quot;&gt;Echo&lt;/font&gt;" style="text;strokeColor=none;align=center;fillColor=none;html=1;verticalAlign=middle;whiteSpace=wrap;rounded=0;" vertex="1" parent="1">
          <mxGeometry x="480" y="100" width="15" height="10" as="geometry" />
        </mxCell>
        <mxCell id="VtMSIpUSbgN7GNLW5Yxd-64" value="&lt;font style=&quot;font-size: 7px;&quot;&gt;Trig&lt;/font&gt;" style="text;strokeColor=none;align=center;fillColor=none;html=1;verticalAlign=middle;whiteSpace=wrap;rounded=0;" vertex="1" parent="1">
          <mxGeometry x="502" y="100" width="15" height="10" as="geometry" />
        </mxCell>
        <mxCell id="VtMSIpUSbgN7GNLW5Yxd-65" value="" style="endArrow=oval;html=1;rounded=0;exitX=0.631;exitY=1;exitDx=0;exitDy=0;exitPerimeter=0;startArrow=oval;startFill=1;endFill=1;shadow=0;entryX=0.831;entryY=0.993;entryDx=0;entryDy=0;entryPerimeter=0;fillColor=#a20025;strokeColor=#6F0000;" edge="1" parent="1" source="VtMSIpUSbgN7GNLW5Yxd-1" target="VtMSIpUSbgN7GNLW5Yxd-56">
          <mxGeometry width="50" height="50" relative="1" as="geometry">
            <mxPoint x="88" y="410" as="sourcePoint" />
            <mxPoint x="550" y="150" as="targetPoint" />
            <Array as="points">
              <mxPoint x="60" y="527" />
              <mxPoint x="60" y="300" />
              <mxPoint x="510" y="300" />
            </Array>
          </mxGeometry>
        </mxCell>
        <mxCell id="VtMSIpUSbgN7GNLW5Yxd-66" value="" style="endArrow=oval;html=1;rounded=0;exitX=0.566;exitY=1.004;exitDx=0;exitDy=0;exitPerimeter=0;startArrow=oval;startFill=1;endFill=1;entryX=0.79;entryY=1.021;entryDx=0;entryDy=0;entryPerimeter=0;fillColor=#e3c800;strokeColor=#B09500;" edge="1" parent="1" source="VtMSIpUSbgN7GNLW5Yxd-1" target="VtMSIpUSbgN7GNLW5Yxd-69">
          <mxGeometry width="50" height="50" relative="1" as="geometry">
            <mxPoint x="120" y="490" as="sourcePoint" />
            <mxPoint x="660" y="260" as="targetPoint" />
            <Array as="points">
              <mxPoint x="70" y="516" />
              <mxPoint x="70" y="320" />
              <mxPoint x="666" y="320" />
            </Array>
          </mxGeometry>
        </mxCell>
        <mxCell id="VtMSIpUSbgN7GNLW5Yxd-67" value="" style="endArrow=oval;html=1;rounded=0;entryX=0.687;entryY=1.004;entryDx=0;entryDy=0;entryPerimeter=0;startArrow=oval;startFill=1;endFill=1;exitX=0.63;exitY=0.998;exitDx=0;exitDy=0;exitPerimeter=0;fillColor=#d80073;strokeColor=#A50040;" edge="1" parent="1" source="VtMSIpUSbgN7GNLW5Yxd-56" target="VtMSIpUSbgN7GNLW5Yxd-1">
          <mxGeometry width="50" height="50" relative="1" as="geometry">
            <mxPoint x="480" y="240" as="sourcePoint" />
            <mxPoint x="119" y="490" as="targetPoint" />
            <Array as="points">
              <mxPoint x="486" y="240" />
              <mxPoint x="40" y="240" />
              <mxPoint x="40" y="537" />
            </Array>
          </mxGeometry>
        </mxCell>
        <mxCell id="VtMSIpUSbgN7GNLW5Yxd-69" value="" style="whiteSpace=wrap;html=1;aspect=fixed;" vertex="1" parent="1">
          <mxGeometry x="602.5" y="56.25" width="80" height="80" as="geometry" />
        </mxCell>
        <mxCell id="VtMSIpUSbgN7GNLW5Yxd-70" value="Ultrasonic sensor" style="text;strokeColor=none;align=center;fillColor=none;html=1;verticalAlign=middle;whiteSpace=wrap;rounded=0;" vertex="1" parent="1">
          <mxGeometry x="440" y="15" width="60" height="30" as="geometry" />
        </mxCell>
        <mxCell id="VtMSIpUSbgN7GNLW5Yxd-71" value="servo motor" style="text;strokeColor=none;align=center;fillColor=none;html=1;verticalAlign=middle;whiteSpace=wrap;rounded=0;" vertex="1" parent="1">
          <mxGeometry x="610" y="20" width="60" height="30" as="geometry" />
        </mxCell>
        <mxCell id="VtMSIpUSbgN7GNLW5Yxd-73" value="&lt;span style=&quot;font-size: 7px;&quot;&gt;VCC&lt;/span&gt;" style="text;strokeColor=none;align=center;fillColor=none;html=1;verticalAlign=middle;whiteSpace=wrap;rounded=0;" vertex="1" parent="1">
          <mxGeometry x="610" y="123.25" width="15" height="10" as="geometry" />
        </mxCell>
        <mxCell id="VtMSIpUSbgN7GNLW5Yxd-74" value="&lt;span style=&quot;font-size: 7px;&quot;&gt;GND&lt;/span&gt;" style="text;strokeColor=none;align=center;fillColor=none;html=1;verticalAlign=middle;whiteSpace=wrap;rounded=0;" vertex="1" parent="1">
          <mxGeometry x="635" y="123.25" width="15" height="10" as="geometry" />
        </mxCell>
        <mxCell id="VtMSIpUSbgN7GNLW5Yxd-75" value="&lt;span style=&quot;font-size: 7px;&quot;&gt;PWN&lt;/span&gt;" style="text;strokeColor=none;align=center;fillColor=none;html=1;verticalAlign=middle;whiteSpace=wrap;rounded=0;" vertex="1" parent="1">
          <mxGeometry x="657.5" y="123.25" width="15" height="10" as="geometry" />
        </mxCell>
        <mxCell id="VtMSIpUSbgN7GNLW5Yxd-76" value="" style="endArrow=oval;html=1;rounded=0;exitX=0.5;exitY=1;exitDx=0;exitDy=0;entryX=0.79;entryY=-0.006;entryDx=0;entryDy=0;entryPerimeter=0;startArrow=oval;startFill=1;endFill=1;fillColor=#d0cee2;strokeColor=#56517e;" edge="1" parent="1" source="VtMSIpUSbgN7GNLW5Yxd-1" target="VtMSIpUSbgN7GNLW5Yxd-17">
          <mxGeometry width="50" height="50" relative="1" as="geometry">
            <mxPoint x="110" y="410" as="sourcePoint" />
            <mxPoint x="720" y="530" as="targetPoint" />
            <Array as="points">
              <mxPoint x="80" y="505" />
              <mxPoint x="80" y="330" />
              <mxPoint x="715" y="330" />
            </Array>
          </mxGeometry>
        </mxCell>
        <mxCell id="VtMSIpUSbgN7GNLW5Yxd-77" value="" style="endArrow=oval;html=1;rounded=0;exitX=0.446;exitY=1.01;exitDx=0;exitDy=0;exitPerimeter=0;entryX=0.706;entryY=-0.005;entryDx=0;entryDy=0;entryPerimeter=0;startArrow=oval;startFill=1;endFill=1;fillColor=#d5e8d4;gradientColor=#97d077;strokeColor=#82b366;" edge="1" parent="1" source="VtMSIpUSbgN7GNLW5Yxd-1" target="VtMSIpUSbgN7GNLW5Yxd-17">
          <mxGeometry width="50" height="50" relative="1" as="geometry">
            <mxPoint x="100" y="410" as="sourcePoint" />
            <mxPoint x="670" y="460" as="targetPoint" />
            <Array as="points">
              <mxPoint x="90" y="496" />
              <mxPoint x="90" y="340" />
              <mxPoint x="705" y="340" />
            </Array>
          </mxGeometry>
        </mxCell>
        <mxCell id="VtMSIpUSbgN7GNLW5Yxd-81" value="" style="endArrow=oval;html=1;rounded=0;exitX=0.392;exitY=1;exitDx=0;exitDy=0;exitPerimeter=0;entryX=0.627;entryY=0;entryDx=0;entryDy=0;entryPerimeter=0;startArrow=oval;startFill=1;endFill=1;fillColor=#f8cecc;gradientColor=#ea6b66;strokeColor=#b85450;" edge="1" parent="1" source="VtMSIpUSbgN7GNLW5Yxd-1" target="VtMSIpUSbgN7GNLW5Yxd-17">
          <mxGeometry width="50" height="50" relative="1" as="geometry">
            <mxPoint x="275" y="400" as="sourcePoint" />
            <mxPoint x="680" y="350" as="targetPoint" />
            <Array as="points">
              <mxPoint x="100" y="487" />
              <mxPoint x="100" y="350" />
              <mxPoint x="695" y="350" />
            </Array>
          </mxGeometry>
        </mxCell>
        <mxCell id="VtMSIpUSbgN7GNLW5Yxd-83" value="" style="endArrow=oval;html=1;rounded=0;exitX=0.336;exitY=1.003;exitDx=0;exitDy=0;exitPerimeter=0;entryX=0.545;entryY=0.01;entryDx=0;entryDy=0;entryPerimeter=0;startArrow=oval;startFill=1;endFill=1;fillColor=#dae8fc;gradientColor=#7ea6e0;strokeColor=#6c8ebf;" edge="1" parent="1" source="VtMSIpUSbgN7GNLW5Yxd-1" target="VtMSIpUSbgN7GNLW5Yxd-17">
          <mxGeometry width="50" height="50" relative="1" as="geometry">
            <mxPoint x="242.5" y="410" as="sourcePoint" />
            <mxPoint x="680" y="360" as="targetPoint" />
            <Array as="points">
              <mxPoint x="110" y="477" />
              <mxPoint x="110" y="360" />
              <mxPoint x="685" y="360" />
            </Array>
          </mxGeometry>
        </mxCell>
        <mxCell id="VtMSIpUSbgN7GNLW5Yxd-85" value="" style="endArrow=oval;html=1;rounded=0;exitX=0.28;exitY=0.995;exitDx=0;exitDy=0;exitPerimeter=0;entryX=0.454;entryY=0.004;entryDx=0;entryDy=0;entryPerimeter=0;startArrow=oval;startFill=1;endFill=1;fillColor=#ffff88;strokeColor=#3D1939;" edge="1" parent="1" source="VtMSIpUSbgN7GNLW5Yxd-1" target="VtMSIpUSbgN7GNLW5Yxd-17">
          <mxGeometry width="50" height="50" relative="1" as="geometry">
            <mxPoint x="275" y="430" as="sourcePoint" />
            <mxPoint x="660" y="370" as="targetPoint" />
            <Array as="points">
              <mxPoint x="120" y="468" />
              <mxPoint x="120" y="370" />
              <mxPoint x="674" y="370" />
            </Array>
          </mxGeometry>
        </mxCell>
        <mxCell id="VtMSIpUSbgN7GNLW5Yxd-86" value="" style="endArrow=oval;html=1;rounded=0;exitX=0.217;exitY=0.999;exitDx=0;exitDy=0;exitPerimeter=0;startArrow=oval;startFill=1;endFill=1;fillColor=#0050ef;strokeColor=#001DBC;" edge="1" parent="1" source="VtMSIpUSbgN7GNLW5Yxd-1">
          <mxGeometry width="50" height="50" relative="1" as="geometry">
            <mxPoint x="272.5" y="420" as="sourcePoint" />
            <mxPoint x="656" y="560" as="targetPoint" />
            <Array as="points">
              <mxPoint x="130" y="457" />
              <mxPoint x="130" y="380" />
              <mxPoint x="656" y="380" />
            </Array>
          </mxGeometry>
        </mxCell>
        <mxCell id="VtMSIpUSbgN7GNLW5Yxd-88" value="" style="endArrow=oval;html=1;rounded=0;startArrow=none;startFill=0;endFill=1;" edge="1" parent="1">
          <mxGeometry width="50" height="50" relative="1" as="geometry">
            <mxPoint x="620" y="520" as="sourcePoint" />
            <mxPoint x="665" y="560" as="targetPoint" />
            <Array as="points">
              <mxPoint x="665" y="520" />
            </Array>
          </mxGeometry>
        </mxCell>
        <mxCell id="VtMSIpUSbgN7GNLW5Yxd-90" value="" style="pointerEvents=1;verticalLabelPosition=bottom;shadow=0;dashed=0;align=center;html=1;verticalAlign=top;shape=mxgraph.electrical.resistors.resistor_1;" vertex="1" parent="1">
          <mxGeometry x="80" y="830" width="50" height="20" as="geometry" />
        </mxCell>
        <mxCell id="VtMSIpUSbgN7GNLW5Yxd-92" value="220" style="text;strokeColor=none;align=center;fillColor=none;html=1;verticalAlign=middle;whiteSpace=wrap;rounded=0;" vertex="1" parent="1">
          <mxGeometry x="90" y="860" width="30" height="10" as="geometry" />
        </mxCell>
        <mxCell id="VtMSIpUSbgN7GNLW5Yxd-95" value="" style="endArrow=oval;html=1;rounded=0;entryX=1;entryY=0.5;entryDx=0;entryDy=0;startArrow=oval;startFill=1;endFill=1;" edge="1" parent="1" target="VtMSIpUSbgN7GNLW5Yxd-37">
          <mxGeometry width="50" height="50" relative="1" as="geometry">
            <mxPoint x="420" y="720" as="sourcePoint" />
            <mxPoint x="420" y="930" as="targetPoint" />
            <Array as="points">
              <mxPoint x="420" y="940" />
            </Array>
          </mxGeometry>
        </mxCell>
        <mxCell id="VtMSIpUSbgN7GNLW5Yxd-96" value="" style="endArrow=oval;html=1;rounded=0;exitX=0.147;exitY=0.998;exitDx=0;exitDy=0;exitPerimeter=0;entryX=0;entryY=0.5;entryDx=0;entryDy=0;fillColor=#1ba1e2;strokeColor=#006EAF;startArrow=oval;startFill=1;endFill=1;" edge="1" parent="1" source="VtMSIpUSbgN7GNLW5Yxd-1" target="VtMSIpUSbgN7GNLW5Yxd-38">
          <mxGeometry width="50" height="50" relative="1" as="geometry">
            <mxPoint x="300" y="470" as="sourcePoint" />
            <mxPoint x="350" y="420" as="targetPoint" />
            <Array as="points">
              <mxPoint x="140" y="445" />
              <mxPoint x="140" y="400" />
              <mxPoint x="300" y="400" />
              <mxPoint x="300" y="940" />
            </Array>
          </mxGeometry>
        </mxCell>
        <mxCell id="VtMSIpUSbgN7GNLW5Yxd-97" value="" style="endArrow=oval;html=1;rounded=0;exitX=0.532;exitY=-0.011;exitDx=0;exitDy=0;exitPerimeter=0;strokeColor=#FF0000;entryX=0.12;entryY=0.995;entryDx=0;entryDy=0;entryPerimeter=0;endFill=1;" edge="1" parent="1" source="VtMSIpUSbgN7GNLW5Yxd-1" target="VtMSIpUSbgN7GNLW5Yxd-56">
          <mxGeometry width="50" height="50" relative="1" as="geometry">
            <mxPoint x="350" y="500" as="sourcePoint" />
            <mxPoint x="426" y="120" as="targetPoint" />
            <Array as="points">
              <mxPoint x="340" y="510" />
              <mxPoint x="340" y="420" />
              <mxPoint x="426" y="420" />
            </Array>
          </mxGeometry>
        </mxCell>
        <mxCell id="VtMSIpUSbgN7GNLW5Yxd-98" value="" style="endArrow=oval;html=1;rounded=0;strokeColor=light-dark(#000000,#FF0000);startArrow=oval;startFill=1;endFill=1;entryX=0.125;entryY=0.006;entryDx=0;entryDy=0;entryPerimeter=0;" edge="1" parent="1" target="VtMSIpUSbgN7GNLW5Yxd-17">
          <mxGeometry width="50" height="50" relative="1" as="geometry">
            <mxPoint x="340" y="510" as="sourcePoint" />
            <mxPoint x="645" y="560" as="targetPoint" />
            <Array as="points">
              <mxPoint x="635" y="510" />
            </Array>
          </mxGeometry>
        </mxCell>
        <mxCell id="VtMSIpUSbgN7GNLW5Yxd-99" value="" style="endArrow=oval;html=1;rounded=0;startArrow=oval;startFill=1;entryX=0.335;entryY=0.995;entryDx=0;entryDy=0;entryPerimeter=0;endFill=1;" edge="1" parent="1" target="VtMSIpUSbgN7GNLW5Yxd-56">
          <mxGeometry width="50" height="50" relative="1" as="geometry">
            <mxPoint x="420" y="520" as="sourcePoint" />
            <mxPoint x="450" y="120" as="targetPoint" />
            <Array as="points">
              <mxPoint x="420" y="440" />
              <mxPoint x="450" y="440" />
            </Array>
          </mxGeometry>
        </mxCell>
        <mxCell id="VtMSIpUSbgN7GNLW5Yxd-100" value="" style="endArrow=oval;html=1;rounded=0;entryX=0.188;entryY=1.005;entryDx=0;entryDy=0;entryPerimeter=0;startArrow=oval;startFill=1;endFill=1;strokeColor=#FF0000;" edge="1" parent="1" target="VtMSIpUSbgN7GNLW5Yxd-69">
          <mxGeometry width="50" height="50" relative="1" as="geometry">
            <mxPoint x="425" y="200" as="sourcePoint" />
            <mxPoint x="625" y="200" as="targetPoint" />
            <Array as="points">
              <mxPoint x="618" y="200" />
            </Array>
          </mxGeometry>
        </mxCell>
        <mxCell id="VtMSIpUSbgN7GNLW5Yxd-101" value="" style="endArrow=oval;html=1;rounded=0;entryX=0.5;entryY=1;entryDx=0;entryDy=0;startArrow=oval;startFill=1;endFill=1;" edge="1" parent="1" target="VtMSIpUSbgN7GNLW5Yxd-69">
          <mxGeometry width="50" height="50" relative="1" as="geometry">
            <mxPoint x="450" y="220" as="sourcePoint" />
            <mxPoint x="640" y="240" as="targetPoint" />
            <Array as="points">
              <mxPoint x="643" y="220" />
            </Array>
          </mxGeometry>
        </mxCell>
        <mxCell id="VtMSIpUSbgN7GNLW5Yxd-104" value="" style="pointerEvents=1;verticalLabelPosition=bottom;shadow=0;dashed=0;align=center;html=1;verticalAlign=top;shape=mxgraph.electrical.resistors.resistor_1;" vertex="1" parent="1">
          <mxGeometry x="750" y="350" width="50" height="20" as="geometry" />
        </mxCell>
        <mxCell id="VtMSIpUSbgN7GNLW5Yxd-105" value="220" style="text;strokeColor=none;align=center;fillColor=none;html=1;verticalAlign=middle;whiteSpace=wrap;rounded=0;" vertex="1" parent="1">
          <mxGeometry x="760" y="380" width="30" height="10" as="geometry" />
        </mxCell>
        <mxCell id="VtMSIpUSbgN7GNLW5Yxd-107" value="" style="verticalLabelPosition=bottom;shadow=0;dashed=0;align=center;html=1;verticalAlign=top;shape=mxgraph.electrical.opto_electronics.led_1;pointerEvents=1;" vertex="1" parent="1">
          <mxGeometry x="192.5" y="825" width="40" height="25" as="geometry" />
        </mxCell>
        <mxCell id="VtMSIpUSbgN7GNLW5Yxd-108" value="" style="endArrow=none;html=1;rounded=0;exitX=0.091;exitY=-0.001;exitDx=0;exitDy=0;exitPerimeter=0;fillColor=#60a917;strokeColor=#2D7600;" edge="1" parent="1" source="VtMSIpUSbgN7GNLW5Yxd-1">
          <mxGeometry width="50" height="50" relative="1" as="geometry">
            <mxPoint x="225" y="440" as="sourcePoint" />
            <mxPoint x="80" y="840" as="targetPoint" />
            <Array as="points">
              <mxPoint x="280" y="435" />
              <mxPoint x="280" y="670" />
              <mxPoint x="10" y="670" />
              <mxPoint x="10" y="840" />
            </Array>
          </mxGeometry>
        </mxCell>
        <mxCell id="VtMSIpUSbgN7GNLW5Yxd-109" value="" style="endArrow=none;html=1;rounded=0;exitX=0;exitY=0.54;exitDx=0;exitDy=0;exitPerimeter=0;fillColor=#60a917;strokeColor=#2D7600;entryX=1;entryY=0.5;entryDx=0;entryDy=0;entryPerimeter=0;" edge="1" parent="1" source="VtMSIpUSbgN7GNLW5Yxd-107" target="VtMSIpUSbgN7GNLW5Yxd-90">
          <mxGeometry width="50" height="50" relative="1" as="geometry">
            <mxPoint x="365" y="565" as="sourcePoint" />
            <mxPoint x="220" y="970" as="targetPoint" />
            <Array as="points" />
          </mxGeometry>
        </mxCell>
        <mxCell id="VtMSIpUSbgN7GNLW5Yxd-111" value="" style="endArrow=oval;html=1;rounded=0;exitX=1;exitY=0.54;exitDx=0;exitDy=0;exitPerimeter=0;endFill=1;" edge="1" parent="1" source="VtMSIpUSbgN7GNLW5Yxd-107">
          <mxGeometry width="50" height="50" relative="1" as="geometry">
            <mxPoint x="360" y="690" as="sourcePoint" />
            <mxPoint x="233" y="720" as="targetPoint" />
          </mxGeometry>
        </mxCell>
        <mxCell id="VtMSIpUSbgN7GNLW5Yxd-112" value="" style="endArrow=none;html=1;rounded=0;strokeColor=#FF0000;startArrow=oval;startFill=1;endFill=1;entryX=0;entryY=0.5;entryDx=0;entryDy=0;entryPerimeter=0;" edge="1" parent="1" target="VtMSIpUSbgN7GNLW5Yxd-104">
          <mxGeometry width="50" height="50" relative="1" as="geometry">
            <mxPoint x="635" y="510" as="sourcePoint" />
            <mxPoint x="725" y="420" as="targetPoint" />
            <Array as="points">
              <mxPoint x="725" y="510" />
              <mxPoint x="725" y="360" />
            </Array>
          </mxGeometry>
        </mxCell>
        <mxCell id="VtMSIpUSbgN7GNLW5Yxd-117" value="" style="endArrow=none;html=1;rounded=0;entryX=1;entryY=0.5;entryDx=0;entryDy=0;entryPerimeter=0;exitX=0.5;exitY=0;exitDx=0;exitDy=0;strokeColor=#FF0000;endFill=1;startArrow=oval;startFill=1;" edge="1" parent="1" source="VtMSIpUSbgN7GNLW5Yxd-32" target="VtMSIpUSbgN7GNLW5Yxd-104">
          <mxGeometry width="50" height="50" relative="1" as="geometry">
            <mxPoint x="760" y="500" as="sourcePoint" />
            <mxPoint x="810" y="450" as="targetPoint" />
            <Array as="points">
              <mxPoint x="725" y="530" />
              <mxPoint x="820" y="530" />
              <mxPoint x="820" y="360" />
            </Array>
          </mxGeometry>
        </mxCell>
        <mxCell id="VtMSIpUSbgN7GNLW5Yxd-118" value="" style="endArrow=oval;html=1;rounded=0;entryX=0.5;entryY=0;entryDx=0;entryDy=0;endFill=1;" edge="1" parent="1" target="VtMSIpUSbgN7GNLW5Yxd-33">
          <mxGeometry width="50" height="50" relative="1" as="geometry">
            <mxPoint x="660" y="520" as="sourcePoint" />
            <mxPoint x="770" y="520" as="targetPoint" />
            <Array as="points">
              <mxPoint x="735" y="520" />
            </Array>
          </mxGeometry>
        </mxCell>
        <mxCell id="VtMSIpUSbgN7GNLW5Yxd-119" value="" style="endArrow=oval;html=1;rounded=0;exitX=0.5;exitY=0;exitDx=0;exitDy=0;entryX=0.5;entryY=0;entryDx=0;entryDy=0;fillColor=#f0a30a;strokeColor=#BD7000;startArrow=oval;startFill=1;endFill=1;" edge="1" parent="1" source="VtMSIpUSbgN7GNLW5Yxd-39" target="VtMSIpUSbgN7GNLW5Yxd-24">
          <mxGeometry width="50" height="50" relative="1" as="geometry">
            <mxPoint x="550" y="770" as="sourcePoint" />
            <mxPoint x="600" y="720" as="targetPoint" />
            <Array as="points">
              <mxPoint x="560" y="480" />
              <mxPoint x="645" y="480" />
            </Array>
          </mxGeometry>
        </mxCell>
        <mxCell id="VtMSIpUSbgN7GNLW5Yxd-120" value="" style="endArrow=oval;html=1;rounded=0;entryX=1;entryY=0.5;entryDx=0;entryDy=0;endFill=1;strokeColor=#FF0000;" edge="1" parent="1" target="VtMSIpUSbgN7GNLW5Yxd-39">
          <mxGeometry width="50" height="50" relative="1" as="geometry">
            <mxPoint x="340" y="510" as="sourcePoint" />
            <mxPoint x="400" y="560" as="targetPoint" />
            <Array as="points">
              <mxPoint x="340" y="660" />
              <mxPoint x="630" y="660" />
              <mxPoint x="630" y="835" />
            </Array>
          </mxGeometry>
        </mxCell>
        <mxCell id="VtMSIpUSbgN7GNLW5Yxd-121" value="" style="endArrow=oval;html=1;rounded=0;entryX=0;entryY=0.5;entryDx=0;entryDy=0;endFill=1;" edge="1" parent="1" target="VtMSIpUSbgN7GNLW5Yxd-39">
          <mxGeometry width="50" height="50" relative="1" as="geometry">
            <mxPoint x="420" y="720" as="sourcePoint" />
            <mxPoint x="490" y="720" as="targetPoint" />
            <Array as="points">
              <mxPoint x="480" y="720" />
              <mxPoint x="480" y="835" />
            </Array>
          </mxGeometry>
        </mxCell>
      </root>
    </mxGraphModel>
  </diagram>
</mxfile>
